Coordinates
version=1
nRows=9
nColumns=24
inDegrees=yes

Units are S.I. units (second, meters, Newtons, ...)
Angles are in degrees.

endheader
time	pelvis_tilt	pelvis_list	pelvis_rotation	pelvis_tx	pelvis_ty	pelvis_tz	hip_flexion_r	hip_adduction_r	hip_rotation_r	knee_angle_r	ankle_angle_r	subtalar_angle_r	mtp_angle_r	hip_flexion_l	hip_adduction_l	hip_rotation_l	knee_angle_l	ankle_angle_l	subtalar_angle_l	mtp_angle_l	lumbar_extension	lumbar_bending	lumbar_rotation
      7.29000000	      5.10042712	      2.05357498	     16.36620328	      0.61376454	      1.06065635	     -0.03516776	      3.66990670	      3.96425656	     -9.41729310	    -14.92384323	      9.03580964	    -20.45039060	      0.00000000	      1.07457278	     -2.76397329	      1.37888205	    -58.40619177	    -23.09688472	    -42.99719009	      0.00000000	    -16.12326749	     -1.11013450	    -21.17020103
      7.30000000	      4.89101413	      2.28303619	     16.01098783	      0.62526663	      1.06266004	     -0.03489100	      2.82107072	      3.88668104	     -9.11847168	    -14.25284140	      8.98562243	    -20.19790196	      0.00000000	      2.58319110	     -2.02528467	      1.54989455	    -58.81029781	    -21.09245635	    -43.50343037	      0.00000000	    -16.13627446	     -1.51660493	    -20.34912348
      7.31000000	      4.71833178	      2.51209842	     15.57448668	      0.63662937	      1.06469899	     -0.03462410	      1.93711412	      3.79159396	     -8.85618543	    -13.56569648	      8.92731675	    -19.80624663	      0.00000000	      3.99297674	     -1.29086633	      1.63461232	    -58.92135404	    -19.17325048	    -43.70465043	      0.00000000	    -16.19331547	     -1.90888617	    -19.49522030
      7.32000000	      4.53004173	      2.68846587	     15.09879837	      0.64784696	      1.06663356	     -0.03440094	      1.09142819	      3.72197652	     -8.63864627	    -12.87026653	      8.82826750	    -19.35037196	      0.00000000	      5.39353850	     -0.60619112	      1.68035941	    -58.78376898	    -17.21891306	    -43.49972635	      0.00000000	    -16.21301043	     -2.23868924	    -18.63796246
      7.33000000	      4.33687614	      2.81010363	     14.59025359	      0.65895687	      1.06846331	     -0.03421201	      0.26537220	      3.68900534	     -8.46369625	    -12.15216555	      8.67736224	    -18.86710072	      0.00000000	      6.76277238	      0.00982673	      1.69044711	    -58.38688485	    -15.13125689	    -42.80396627	      0.00000000	    -16.21616020	     -2.50338819	    -17.77099170
      7.34000000	      4.14299408	      2.88373064	     14.04768681	      0.66998633	      1.07015101	     -0.03406148	     -0.54930168	      3.69272002	     -8.28993692	    -11.41453909	      8.49651543	    -18.39357264	      0.00000000	      8.09075379	      0.55946510	      1.67491942	    -57.74128320	    -12.95102556	    -41.70420680	      0.00000000	    -16.19711962	     -2.71039739	    -16.90513527
      7.35000000	      3.94950582	      2.91799993	     13.46845304	      0.68096470	      1.07168870	     -0.03393626	     -1.35542102	      3.72495158	     -8.12631063	    -10.66132741	      8.25807914	    -17.93258136	      0.00000000	      9.36400968	      1.04036581	      1.62901260	    -56.84310757	    -10.69302076	    -40.19454836	      0.00000000	    -16.16327118	     -2.87123195	    -16.02673487
      7.36000000	      3.75792293	      2.91930999	     12.86585402	      0.69190363	      1.07304991	     -0.03381087	     -2.15400609	      3.78522089	     -7.96269560	     -9.90041933	      7.99297787	    -17.50375872	      0.00000000	     10.57567771	      1.44852710	      1.56224364	    -55.69792162	     -8.38788447	    -38.33200381	      0.00000000	    -16.12391146	     -3.00099294	    -15.14319878
      7.37000000	      3.56682310	      2.90215658	     12.23605346	      0.70284582	      1.07422309	     -0.03369511	     -2.94331077	      3.85667405	     -7.80289332	     -9.14551960	      7.70926116	    -17.11335186	      0.00000000	     11.70725030	      1.79683481	      1.47490417	    -54.29452293	     -6.15267918	    -36.23467706	      0.00000000	    -16.07286665	     -3.11136941	    -14.25357339
